<svg width="2642" height="2128" viewBox="0 0 2642 2128" fill="none" xmlns="http://www.w3.org/2000/svg">
<mask id="path-1-outside-1_970_148" maskUnits="userSpaceOnUse" x="-0.523438" y="-0.972656" width="2643" height="2129" fill="black">
<rect fill="white" x="-0.523438" y="-0.972656" width="2643" height="2129"/>
<path fill-rule="evenodd" clip-rule="evenodd" d="M848.124 278.111C802.975 279.248 762.752 288.284 719.214 307.072C653.572 335.399 584.476 385.031 532.227 441.386C502.934 472.981 481.751 502.606 460.368 541.885C440.953 577.549 423.055 625.324 416.536 658.885C414.384 669.963 412.643 690.741 412.634 705.449C412.605 751.892 425.041 790.315 457.578 844.308C486.811 892.82 517.751 931.758 559.742 972.885C592.56 1005.03 617.785 1026.23 652.124 1050.56C714.607 1094.81 784.805 1130.63 844.967 1148.95C865.139 1155.09 870.095 1155.6 874.318 1151.97C876.694 1149.93 877.124 1148.79 877.124 1144.58C877.124 1136.38 877.117 1136.37 846.624 1126.59C795.88 1110.32 759.103 1092.97 704.624 1059.59C598.491 994.563 505.821 896.421 457.571 797.951C439.936 761.961 433.604 734.381 434.941 699.385C436.213 666.087 442.482 638.914 457.716 600.657C483.858 535.012 524.086 476.805 578.068 426.517C634.871 373.601 710.734 328.606 772.124 311.419C800.631 303.439 842.624 297.611 842.624 301.635C842.624 302.323 839.563 306.485 835.821 310.885C825.361 323.187 809.942 341.943 792.75 363.276C752.665 413.021 732.316 444.36 716.247 481.104C704.539 507.873 696.628 536.322 693.524 562.807C691.786 577.64 692.92 610.388 695.57 621.885C700.841 644.755 710.124 666.288 722.093 683.408C729.647 694.214 744.616 709.085 756.143 717.235C767.072 724.963 784.088 733.386 788.759 733.381C793.185 733.376 798.041 730.323 799.745 726.475C800.787 724.119 801.755 723.385 803.821 723.385C810.19 723.385 811.116 722.162 823.46 697.462C829.94 684.495 841.966 660.61 850.183 644.385C866.004 613.147 872.293 597.557 878.22 574.885C884.758 549.874 887.102 529.834 886.414 504.835C886.15 495.237 886.26 487.385 886.658 487.385C887.056 487.385 891.188 492.672 895.841 499.135C928.091 543.936 947.852 587.618 954.103 627.922C960.088 666.516 954.459 707.279 938.642 739.885C921.89 774.416 898.475 801.713 862.624 828.506C850.594 837.496 840.817 843.956 819.124 857.248C811.974 861.629 805.094 866.313 803.834 867.656C800.59 871.116 800.065 876.142 802.145 883.824C804.111 891.087 804.082 892.739 801.087 944.885C798.892 983.095 799.481 1007.07 802.943 1020.38C809.399 1045.22 825.821 1067.8 846.911 1080.83C853.874 1085.13 855.144 1085.58 858.91 1085.07C864.539 1084.32 867.624 1080.77 867.624 1075.05C867.624 1069.55 865.812 1067.14 857.763 1061.94C850.227 1057.07 840.245 1047.28 835.274 1039.88C831.006 1033.54 826.377 1022.87 823.986 1013.88C821.415 1004.22 821.434 963.48 824.027 923.677C825.607 899.445 825.725 893.226 824.721 887.177C823.736 881.246 823.754 879.737 824.817 879.091C860.738 857.255 877.13 845.635 898.624 826.77C944.161 786.804 969.803 740.116 977.076 683.927C983.223 636.436 971.473 584.809 942.47 531.886C924.583 499.245 896.142 460.342 887.198 456.279C879.744 452.894 872.316 454.397 867.354 460.294C862.908 465.578 862.138 469.906 863.464 482.147C865.096 497.211 864.912 524.085 863.082 538.044C860.863 554.973 858.142 566.788 852.424 584.315C845.803 604.615 838.001 621.452 815.784 663.385C808.353 677.41 799.83 693.963 796.844 700.169C790.725 712.883 791.687 712.43 781.624 707.345C773.069 703.023 761.802 694.663 754.112 686.933C720.418 653.064 707.901 605.012 718.183 549.011C723.685 519.048 735.503 488.027 752.9 457.885C771.307 425.994 805.531 380.401 849.568 329.105C860.324 316.576 870.131 304.201 871.361 301.605C875.322 293.248 873.9 285.925 867.375 281.069C863.618 278.273 860.532 277.799 848.124 278.111ZM1740.51 282.267C1737.67 285.105 1736.58 287.055 1736.47 289.517C1736.03 299.327 1737.58 302.464 1749.77 316.486C1754.37 321.766 1761.72 330.494 1766.12 335.881C1770.52 341.269 1775.92 347.772 1778.12 350.333C1806.39 383.234 1838.88 427.445 1855.58 455.717C1883.61 503.168 1897.74 554.957 1894.51 598.385C1890.82 647.85 1865.35 688.922 1826.69 707.709C1822.06 709.963 1818.12 711.374 1817.94 710.846C1817.1 708.336 1796.57 667.792 1787.57 650.885C1766.91 612.057 1754.68 581.978 1749.75 557.885C1745.45 536.844 1744.34 524.169 1745.09 504.385C1745.47 494.21 1746.11 482.96 1746.52 479.385C1748.29 463.838 1741.89 454.385 1729.62 454.385C1722.61 454.385 1718.4 457.452 1708.88 469.507C1667.27 522.193 1640.87 577.158 1633.05 627.385C1630.79 641.921 1630.77 673.016 1633.02 688.702C1637.2 717.86 1647.57 746.237 1662.98 770.655C1685.83 806.865 1719.91 838.712 1767.84 868.628L1785.78 879.832L1785.12 884.256C1784.03 891.499 1784.48 912.715 1786.26 938.586C1788.65 973.333 1788.65 1001.63 1786.27 1011.81C1784.16 1020.81 1779.35 1032.74 1775.15 1039.38C1771.44 1045.26 1761.35 1055.14 1753.85 1060.23C1745.52 1065.89 1742.62 1069.58 1742.62 1074.56C1742.62 1077.8 1743.28 1079.24 1746.02 1081.98C1748.3 1084.26 1750.36 1085.38 1752.28 1085.38C1758.24 1085.38 1771.55 1076.42 1782.19 1065.25C1797.64 1049.03 1805.76 1031.29 1809.18 1006.32C1811.04 992.69 1810.94 986.409 1808.15 938.885C1806.26 906.844 1806.05 887.939 1807.54 884.07C1808.14 882.522 1808.62 879.05 1808.62 876.355C1808.62 869.693 1805.59 866.431 1791.39 857.825C1737.72 825.309 1704.13 795.425 1682.91 761.318C1677.89 753.251 1668.84 735.237 1665.22 726.087C1661.76 717.377 1657.15 699.67 1655.01 686.885C1652.92 674.45 1652.65 646.47 1654.5 633.885C1660.43 593.458 1675.96 556.318 1706.14 510.385C1719.44 490.139 1722.7 485.899 1723.72 487.517C1724.19 488.27 1724.31 489.742 1723.98 490.79C1723.66 491.838 1723.4 501.063 1723.41 511.29C1723.44 533.941 1725.43 550.461 1730.59 570.885C1737.51 598.282 1746.74 620.842 1765.56 656.385C1771.53 667.66 1780.92 685.94 1786.43 697.008C1791.94 708.076 1797.02 718.043 1797.71 719.158C1799.06 721.306 1804.66 724.385 1807.22 724.385C1808.06 724.385 1809.94 725.796 1811.39 727.521C1814.64 731.382 1819.16 733.37 1823.12 732.686C1828.5 731.758 1845.92 722.808 1855.06 716.274C1890.2 691.169 1913.74 647.503 1916.18 602.885C1916.48 597.385 1916.87 590.86 1917.03 588.385C1917.48 581.576 1915.77 559.033 1914.04 548.885C1908.29 515.23 1894.58 478.624 1875.05 444.798C1863.79 425.295 1841.24 393.031 1823.74 371.385C1819.07 365.61 1810.52 355.035 1804.74 347.885C1798.97 340.735 1789.49 329.318 1783.68 322.513C1769.52 305.923 1766.62 302.284 1766.62 301.107C1766.62 299.893 1781.61 300.834 1796.62 302.992C1857.68 311.765 1924.07 341.854 1987.14 389.342C2042.43 430.972 2088.78 481.836 2120.66 535.86C2127.69 547.774 2144.74 582.174 2150.42 595.885C2166.7 635.252 2174.62 671.293 2174.62 706.025C2174.62 740.441 2167.89 766.742 2150.09 801.885C2140.05 821.717 2138.5 824.489 2127.73 841.885C2099.18 887.999 2063.03 931.569 2018.97 972.948C1965.15 1023.5 1894.28 1071.17 1825.81 1102.88C1812.56 1109.02 1781.2 1121.38 1772.62 1123.85C1771.25 1124.25 1762.34 1127.04 1752.82 1130.05C1736.99 1135.06 1735.34 1135.79 1733.57 1138.7C1728.84 1146.46 1733.25 1154.77 1742.01 1154.63C1749.23 1154.53 1783.95 1143.55 1807.62 1133.88C1852.79 1115.45 1894.57 1093.06 1939.12 1063.38C1963.22 1047.34 1963.95 1046.82 1980.62 1034C2017.48 1005.67 2051.35 974.367 2081.4 940.885C2114.32 904.206 2146.66 857.666 2167.49 816.997C2188.87 775.257 2196.61 745.626 2196.62 705.548C2196.63 658.51 2184.44 613.172 2156.1 554.885C2139.85 521.446 2113.25 481.871 2085.54 449.885C2071.48 433.659 2033.92 397.532 2019.62 386.484C1980.28 356.078 1955.18 339.435 1925.12 323.809C1881.85 301.315 1849.02 289.55 1812.42 283.431C1789.74 279.638 1776.43 278.385 1758.83 278.385H1744.39L1740.51 282.267ZM1121.38 881.883C1105.2 885.972 1098.64 894.326 1100.61 908.301C1102.55 921.992 1113.97 940.474 1123.21 944.857C1127.25 946.776 1134.86 946.829 1138.48 944.962C1148.42 939.82 1159.62 917.845 1159.62 903.485C1159.62 887.298 1141.18 876.88 1121.38 881.883ZM1435.4 881.881C1424.46 884.644 1416.99 889.633 1414.69 895.7C1409.8 908.61 1422.33 937.604 1435.77 944.457C1440.33 946.788 1447.61 946.958 1452.08 944.839C1463.74 939.304 1475.49 912.963 1472.6 898.825C1469.8 885.163 1452.89 877.459 1435.4 881.881ZM1295.96 958.477C1284.91 959.464 1266.17 964.03 1252.88 968.98C1235.73 975.365 1208.28 990.299 1180.62 1008.29C1165.73 1017.98 1151.52 1023.07 1142.1 1022.09C1133.85 1021.24 1122.43 1016.89 1099.62 1005.91C1074.55 993.832 1060.55 988.431 1044.62 984.68C1034.06 982.195 1031.41 981.972 1012.12 981.953C992.839 981.933 990.214 982.148 979.975 984.581C973.843 986.038 964.438 989.063 959.075 991.304C917.375 1008.73 887.799 1052.02 881.221 1105.26C876.128 1146.48 879.854 1182.51 893.333 1222.38C910.197 1272.27 940.764 1319 984.258 1361.4C1019.85 1396.1 1047.47 1419.02 1091.12 1450.1C1100.47 1456.75 1109.62 1463.33 1111.45 1464.7L1114.77 1467.21L1108.95 1471.49C1090.81 1484.8 1063.59 1511.52 1051.51 1527.88C1037.86 1546.36 1031.75 1560.52 1030.9 1575.64C1030.43 1584.04 1030.67 1586.33 1032.62 1592.14C1035.79 1601.6 1038.68 1606.16 1045.92 1613.11C1055.2 1622.02 1066.42 1627.3 1084.95 1631.48C1094.02 1633.53 1096.57 1633.56 1313.12 1634.22C1433.57 1634.58 1542.25 1634.85 1554.62 1634.81C1587.12 1634.71 1601.9 1632.13 1620.18 1623.36C1628.59 1619.33 1631.3 1617.41 1636.73 1611.66C1646.4 1601.41 1649.55 1593.51 1649.6 1579.45C1649.63 1569.2 1647.36 1560.79 1641.08 1547.88C1628.96 1523.01 1605.33 1497.42 1567.37 1468.05C1562.56 1464.32 1558.62 1460.96 1558.63 1460.58C1558.63 1460.2 1563.46 1456.22 1569.38 1451.74C1589.6 1436.41 1605.92 1421.49 1619.54 1405.88C1657.56 1362.32 1688.87 1305.16 1709.07 1242.45C1719.02 1211.57 1727.46 1169.96 1729.65 1140.99C1734.44 1077.68 1721.04 1028.58 1690.97 999.22C1681.17 989.65 1678.98 987.86 1669.44 981.647C1656.15 972.984 1637.46 966.272 1618.43 963.321C1605.52 961.321 1573.73 962.639 1559.24 965.775C1537.07 970.571 1513.67 978.963 1490.33 990.491C1483.63 993.797 1472.97 998.592 1466.64 1001.15C1455.5 1005.64 1454.78 1005.8 1444.62 1005.82C1431.22 1005.84 1428.38 1004.73 1405.55 990.54C1376.17 972.278 1366.7 967.744 1346.56 962.302C1329.37 957.661 1316.24 956.668 1295.96 958.477ZM1332.24 982.913C1351.09 986.154 1368.29 993.562 1389.12 1007.41C1412.49 1022.94 1424.78 1028.16 1440.19 1029.09C1456.7 1030.09 1468.02 1026.67 1503.15 1010.11C1524.95 999.827 1543.51 993.108 1562.12 988.762C1573.33 986.146 1575.58 985.959 1596.12 985.943C1617.11 985.926 1618.58 986.053 1628.12 988.694C1669.21 1000.07 1693.95 1028.39 1703.47 1074.93C1709.21 1103 1708.95 1129.06 1702.55 1168.09C1690.36 1242.35 1659.39 1316.23 1617.32 1371.37C1601.5 1392.11 1592.93 1401.34 1575.12 1416.79C1558.01 1431.64 1555.9 1433.28 1542.33 1442.31C1530.75 1450.01 1527.63 1453.64 1527.63 1459.46C1527.62 1464.31 1531.13 1468.67 1542.12 1477.47C1583.72 1510.75 1605.47 1532.5 1616.59 1551.94C1625.02 1566.68 1627.83 1579.21 1624.77 1588.44C1623.18 1593.26 1616.32 1599.74 1609.53 1602.83C1602.19 1606.18 1590.35 1609.16 1579.15 1610.47C1570.33 1611.51 1331.64 1611.86 1326.44 1610.84C1321.33 1609.85 1204.18 1609.6 1159.62 1610.5C1110.52 1611.48 1099.04 1611.06 1085.62 1607.74C1075.81 1605.31 1067.28 1601.08 1061.72 1595.88C1049.54 1584.48 1050.96 1571.33 1067 1547.03C1079.32 1528.38 1098.19 1509.4 1123.95 1489.73C1131.56 1483.92 1138.65 1477.75 1139.7 1476.03C1143.91 1469.13 1143.18 1461.91 1137.59 1455.14C1135.88 1453.09 1126.56 1446.16 1116.85 1439.75C1076.11 1412.83 1037.27 1380.95 1000.05 1343.88C962.463 1306.44 939.603 1273.81 922.301 1232.88C913.074 1211.06 906.443 1185.4 903.563 1160.38C902.094 1147.63 902.871 1117.63 904.987 1105.35C911.483 1067.66 926.893 1039.79 950.926 1022.26C965.785 1011.42 984.959 1005.55 1008.12 1004.74C1034.73 1003.82 1051.53 1008.39 1091.87 1027.51C1117.97 1039.87 1120.75 1040.96 1132.48 1043.42C1143.88 1045.81 1148.59 1045.87 1157.92 1043.75C1169.69 1041.07 1179.7 1035.93 1215.12 1014.35C1224.47 1008.65 1237.07 1001.54 1243.12 998.552C1256.79 991.789 1277.38 984.934 1289.74 983.027C1302.34 981.085 1321.32 981.034 1332.24 982.913ZM2300.12 1018.94C2297.92 1019.72 2296.06 1020.36 2295.98 1020.37C2295.9 1020.38 2293.66 1023.86 2291.02 1028.11C2284.22 1039.01 2266.99 1062.83 2256.1 1076.38C2245.41 1089.68 2219.99 1118.03 2213.51 1123.88C2211.07 1126.08 2205.48 1131.26 2201.07 1135.38C2193.19 1142.77 2187.84 1147.24 2168.1 1162.99C2152.2 1175.66 2133.47 1188.71 2117.62 1198.14C2081.01 1219.94 2042.94 1238.13 1993.62 1257.38C1959.18 1270.83 1842.12 1309.5 1768.12 1331.88C1737.32 1341.2 1734.18 1342.36 1731.37 1345.42C1725.74 1351.56 1729.09 1362.44 1737.07 1363.94C1739.18 1364.34 1742.92 1363.82 1747.26 1362.54C1755.59 1360.07 1792.35 1348.52 1817.62 1340.42C1827.8 1337.16 1850.52 1329.93 1868.12 1324.36C1967 1293.07 2023.42 1271.93 2076.29 1246.38C2125.04 1222.82 2167.2 1195.47 2205.62 1162.48C2241.26 1131.88 2277.22 1090.6 2306.33 1046.88C2317.1 1030.71 2317.84 1027.67 2312.37 1021.97C2308.41 1017.83 2305.37 1017.08 2300.12 1018.94ZM361.541 1021.17C359.169 1023.29 358.317 1025.01 357.965 1028.42C357.55 1032.43 358.038 1033.77 362.814 1041.65C384.762 1077.89 424.163 1124.76 459.624 1156.82C502.943 1195.99 553.951 1229.15 609.624 1254.35C615.949 1257.22 625.553 1261.57 630.967 1264.03C644.04 1269.97 681.021 1284.02 721.624 1298.46C729.417 1301.23 824.187 1331.47 844.624 1337.7C865.379 1344.04 898.829 1354.41 915.045 1359.55C933.179 1365.29 936.372 1365.4 940.874 1360.4C942.985 1358.06 943.624 1356.34 943.624 1353C943.624 1344.58 942.343 1343.89 905.124 1332.5C782.502 1294.94 711.564 1271.67 671.539 1255.87C591.361 1224.22 539.22 1194.21 486.037 1149.12C450.93 1119.35 412.856 1075.86 386.232 1035.13C380.153 1025.83 375.948 1020.4 374.207 1019.6C369.633 1017.52 364.981 1018.09 361.541 1021.17ZM290.624 1323.14C281.92 1324.29 277.5 1334.14 282.712 1340.77C285.566 1344.4 286.682 1344.89 315.124 1355.14C352.24 1368.52 380.479 1377.48 408.624 1384.8C416.049 1386.73 427.299 1389.68 433.624 1391.36C444.065 1394.13 483.071 1402.88 496.624 1405.49C499.649 1406.08 505.049 1407.19 508.624 1407.97C520.988 1410.67 561.214 1417.28 584.124 1420.37C596.774 1422.07 611.624 1424.11 617.124 1424.9C669.163 1432.31 750.705 1437.52 837.135 1438.97L878.146 1439.66L881.318 1436.99C887.859 1431.48 887.798 1422.51 881.192 1418.43C878.062 1416.49 876.339 1416.38 848.506 1416.38C795.818 1416.37 726.461 1412.81 664.124 1406.93C610.795 1401.9 576.876 1397.28 531.624 1388.88C527.499 1388.11 518.949 1386.52 512.624 1385.35C450.489 1373.82 361.592 1349.02 310.124 1328.88C295.787 1323.27 293.877 1322.7 290.624 1323.14ZM2340.62 1326.05C2267.88 1353.36 2181.07 1376.76 2101.76 1390.45C2095.36 1391.56 2086.3 1393.12 2081.62 1393.92C2049.67 1399.4 1979.92 1407.38 1937.62 1410.39C1890.19 1413.77 1828.57 1416.36 1795.34 1416.37C1765.54 1416.39 1762.54 1416.81 1759.25 1421.5C1758.35 1422.79 1757.62 1425.78 1757.62 1428.21C1757.62 1431.86 1758.19 1433.15 1761.05 1436.01L1764.48 1439.44L1791.3 1439.25C1855.75 1438.78 1933.32 1434.63 1995.62 1428.32C2082.96 1419.47 2191.63 1398.4 2264.62 1376.17C2273.7 1373.41 2284.27 1370.25 2288.12 1369.15C2297.04 1366.6 2352.07 1346.91 2356.35 1344.74C2361.13 1342.3 2362.8 1339.98 2363.37 1334.95C2363.84 1330.81 2363.59 1330.15 2360.35 1326.91C2358.41 1324.97 2355.92 1323.38 2354.81 1323.38C2353.7 1323.38 2352.19 1323.18 2351.46 1322.93C2350.72 1322.68 2345.85 1324.09 2340.62 1326.05ZM1688 1469.82C1681.26 1472.76 1679.35 1481.53 1684.19 1487.29C1686.83 1490.42 1687.36 1490.62 1709.25 1496.74C1714.26 1498.14 1727.03 1502.48 1737.61 1506.38C1794.07 1527.2 1847.55 1556.42 1889.62 1589.44C1907.27 1603.3 1936.03 1631.68 1947.82 1646.88C1978.64 1686.62 1991.23 1722.62 1985.67 1755.14C1984.39 1762.62 1984.42 1763.73 1985.93 1766.9C1987.81 1770.84 1992.87 1774.38 1996.62 1774.38C2000.18 1774.38 2005.25 1771 2007.11 1767.4C2009.47 1762.85 2010.94 1748.37 2010.32 1735.88C2008.28 1694.64 1984.83 1649.32 1943.66 1607C1890.03 1551.89 1811.46 1505.49 1724.12 1477.35C1708.32 1472.26 1694.33 1468.35 1692.21 1468.42C1691.61 1468.45 1689.72 1469.07 1688 1469.82ZM970.124 1471.49C947.979 1477.7 906.018 1493.1 884.124 1503.06C857.42 1515.21 829.301 1530.65 806.124 1545.9C795.572 1552.85 791.94 1555.44 774.124 1568.74C741.975 1592.74 710.257 1626.06 692.118 1654.88C684.199 1667.47 674.096 1688.21 670.69 1698.88C665.049 1716.56 663.365 1726.61 663.318 1742.88C663.257 1763.91 665.665 1771.12 673.546 1773.48C678.758 1775.04 684.107 1773.24 686.767 1769.03C688.491 1766.3 688.648 1765.02 687.948 1759.38C687.504 1755.81 687.175 1747.03 687.218 1739.88C687.282 1729.18 687.781 1724.96 690.05 1715.97C695.162 1695.73 704.817 1676.95 722.994 1651.88C761.54 1598.74 837.947 1545.23 922.124 1512.43C941.803 1504.76 960.551 1498.24 973.988 1494.38C987.126 1490.61 988.158 1490.01 990.181 1484.95C992.287 1479.69 991.363 1475.18 987.513 1471.94C983.815 1468.83 979.961 1468.73 970.124 1471.49ZM1662.84 1625.94C1658.73 1627.66 1656.62 1631.09 1656.62 1636.03C1656.62 1641.49 1660.08 1645.68 1666.4 1647.89C1697.62 1658.83 1716.1 1668.71 1736.6 1685.45C1771.81 1714.21 1791.62 1751.8 1791.62 1789.86C1791.62 1802.7 1789.2 1812.74 1783.13 1824.97C1777.33 1836.65 1777.1 1841.06 1782.02 1845.98C1784.87 1848.84 1786.14 1849.38 1789.89 1849.38C1796.13 1849.38 1799.12 1846.65 1803.75 1836.74C1811.73 1819.62 1815.19 1802.62 1814.35 1784.63C1812.62 1747.61 1798.26 1714.77 1771.05 1685.58C1749.77 1662.76 1717.5 1641.78 1685.62 1630.05C1673.19 1625.47 1666.72 1624.3 1662.84 1625.94ZM995.624 1627.78C952.864 1643.08 918.485 1666.02 895.209 1694.79C858.879 1739.7 849.02 1792.78 869.128 1835.21C873.921 1845.33 876.143 1848.16 880.167 1849.27C887.214 1851.21 894.165 1846.98 895.288 1840.07C895.767 1837.12 895.048 1834.79 891.304 1827.17C883.982 1812.29 882.16 1804.43 882.193 1787.88C882.216 1776.65 882.673 1772.11 884.512 1764.88C893.386 1730.01 918.413 1696.84 953.124 1673.95C963.056 1667.4 981.109 1658.37 995.124 1652.93C1010.39 1647.01 1011.32 1646.53 1014.22 1643.09C1016.98 1639.81 1017.3 1635.6 1015.13 1631.4C1011.78 1624.92 1006.42 1623.92 995.624 1627.78Z"/>
</mask>
<path fill-rule="evenodd" clip-rule="evenodd" d="M848.124 278.111C802.975 279.248 762.752 288.284 719.214 307.072C653.572 335.399 584.476 385.031 532.227 441.386C502.934 472.981 481.751 502.606 460.368 541.885C440.953 577.549 423.055 625.324 416.536 658.885C414.384 669.963 412.643 690.741 412.634 705.449C412.605 751.892 425.041 790.315 457.578 844.308C486.811 892.82 517.751 931.758 559.742 972.885C592.56 1005.03 617.785 1026.23 652.124 1050.56C714.607 1094.81 784.805 1130.63 844.967 1148.95C865.139 1155.09 870.095 1155.6 874.318 1151.97C876.694 1149.93 877.124 1148.79 877.124 1144.58C877.124 1136.38 877.117 1136.37 846.624 1126.59C795.88 1110.32 759.103 1092.97 704.624 1059.59C598.491 994.563 505.821 896.421 457.571 797.951C439.936 761.961 433.604 734.381 434.941 699.385C436.213 666.087 442.482 638.914 457.716 600.657C483.858 535.012 524.086 476.805 578.068 426.517C634.871 373.601 710.734 328.606 772.124 311.419C800.631 303.439 842.624 297.611 842.624 301.635C842.624 302.323 839.563 306.485 835.821 310.885C825.361 323.187 809.942 341.943 792.75 363.276C752.665 413.021 732.316 444.36 716.247 481.104C704.539 507.873 696.628 536.322 693.524 562.807C691.786 577.64 692.92 610.388 695.57 621.885C700.841 644.755 710.124 666.288 722.093 683.408C729.647 694.214 744.616 709.085 756.143 717.235C767.072 724.963 784.088 733.386 788.759 733.381C793.185 733.376 798.041 730.323 799.745 726.475C800.787 724.119 801.755 723.385 803.821 723.385C810.19 723.385 811.116 722.162 823.46 697.462C829.94 684.495 841.966 660.61 850.183 644.385C866.004 613.147 872.293 597.557 878.22 574.885C884.758 549.874 887.102 529.834 886.414 504.835C886.15 495.237 886.26 487.385 886.658 487.385C887.056 487.385 891.188 492.672 895.841 499.135C928.091 543.936 947.852 587.618 954.103 627.922C960.088 666.516 954.459 707.279 938.642 739.885C921.89 774.416 898.475 801.713 862.624 828.506C850.594 837.496 840.817 843.956 819.124 857.248C811.974 861.629 805.094 866.313 803.834 867.656C800.59 871.116 800.065 876.142 802.145 883.824C804.111 891.087 804.082 892.739 801.087 944.885C798.892 983.095 799.481 1007.07 802.943 1020.38C809.399 1045.22 825.821 1067.8 846.911 1080.83C853.874 1085.13 855.144 1085.58 858.91 1085.07C864.539 1084.32 867.624 1080.77 867.624 1075.05C867.624 1069.55 865.812 1067.14 857.763 1061.94C850.227 1057.07 840.245 1047.28 835.274 1039.88C831.006 1033.54 826.377 1022.87 823.986 1013.88C821.415 1004.22 821.434 963.48 824.027 923.677C825.607 899.445 825.725 893.226 824.721 887.177C823.736 881.246 823.754 879.737 824.817 879.091C860.738 857.255 877.13 845.635 898.624 826.77C944.161 786.804 969.803 740.116 977.076 683.927C983.223 636.436 971.473 584.809 942.47 531.886C924.583 499.245 896.142 460.342 887.198 456.279C879.744 452.894 872.316 454.397 867.354 460.294C862.908 465.578 862.138 469.906 863.464 482.147C865.096 497.211 864.912 524.085 863.082 538.044C860.863 554.973 858.142 566.788 852.424 584.315C845.803 604.615 838.001 621.452 815.784 663.385C808.353 677.41 799.83 693.963 796.844 700.169C790.725 712.883 791.687 712.43 781.624 707.345C773.069 703.023 761.802 694.663 754.112 686.933C720.418 653.064 707.901 605.012 718.183 549.011C723.685 519.048 735.503 488.027 752.9 457.885C771.307 425.994 805.531 380.401 849.568 329.105C860.324 316.576 870.131 304.201 871.361 301.605C875.322 293.248 873.9 285.925 867.375 281.069C863.618 278.273 860.532 277.799 848.124 278.111ZM1740.51 282.267C1737.67 285.105 1736.58 287.055 1736.47 289.517C1736.03 299.327 1737.58 302.464 1749.77 316.486C1754.37 321.766 1761.72 330.494 1766.12 335.881C1770.52 341.269 1775.92 347.772 1778.12 350.333C1806.39 383.234 1838.88 427.445 1855.58 455.717C1883.61 503.168 1897.74 554.957 1894.51 598.385C1890.82 647.85 1865.35 688.922 1826.69 707.709C1822.06 709.963 1818.12 711.374 1817.94 710.846C1817.1 708.336 1796.57 667.792 1787.57 650.885C1766.91 612.057 1754.68 581.978 1749.75 557.885C1745.45 536.844 1744.34 524.169 1745.09 504.385C1745.47 494.21 1746.11 482.96 1746.52 479.385C1748.29 463.838 1741.89 454.385 1729.62 454.385C1722.61 454.385 1718.4 457.452 1708.88 469.507C1667.27 522.193 1640.87 577.158 1633.05 627.385C1630.79 641.921 1630.77 673.016 1633.02 688.702C1637.2 717.86 1647.57 746.237 1662.98 770.655C1685.83 806.865 1719.91 838.712 1767.84 868.628L1785.78 879.832L1785.12 884.256C1784.03 891.499 1784.48 912.715 1786.26 938.586C1788.65 973.333 1788.65 1001.63 1786.27 1011.81C1784.16 1020.81 1779.35 1032.74 1775.15 1039.38C1771.44 1045.26 1761.35 1055.14 1753.85 1060.23C1745.52 1065.89 1742.62 1069.58 1742.62 1074.56C1742.62 1077.8 1743.28 1079.24 1746.02 1081.98C1748.3 1084.26 1750.36 1085.38 1752.28 1085.38C1758.24 1085.38 1771.55 1076.42 1782.19 1065.25C1797.64 1049.03 1805.76 1031.29 1809.18 1006.32C1811.04 992.69 1810.94 986.409 1808.15 938.885C1806.26 906.844 1806.05 887.939 1807.54 884.07C1808.14 882.522 1808.62 879.05 1808.62 876.355C1808.62 869.693 1805.59 866.431 1791.39 857.825C1737.72 825.309 1704.13 795.425 1682.91 761.318C1677.89 753.251 1668.84 735.237 1665.22 726.087C1661.76 717.377 1657.15 699.67 1655.01 686.885C1652.92 674.45 1652.65 646.47 1654.5 633.885C1660.43 593.458 1675.96 556.318 1706.14 510.385C1719.44 490.139 1722.7 485.899 1723.72 487.517C1724.19 488.27 1724.31 489.742 1723.98 490.79C1723.66 491.838 1723.4 501.063 1723.41 511.29C1723.44 533.941 1725.43 550.461 1730.59 570.885C1737.51 598.282 1746.74 620.842 1765.56 656.385C1771.53 667.66 1780.92 685.94 1786.43 697.008C1791.94 708.076 1797.02 718.043 1797.71 719.158C1799.06 721.306 1804.66 724.385 1807.22 724.385C1808.06 724.385 1809.94 725.796 1811.39 727.521C1814.64 731.382 1819.16 733.37 1823.12 732.686C1828.5 731.758 1845.92 722.808 1855.06 716.274C1890.2 691.169 1913.74 647.503 1916.18 602.885C1916.48 597.385 1916.87 590.86 1917.03 588.385C1917.48 581.576 1915.77 559.033 1914.04 548.885C1908.29 515.23 1894.58 478.624 1875.05 444.798C1863.79 425.295 1841.24 393.031 1823.74 371.385C1819.07 365.61 1810.52 355.035 1804.74 347.885C1798.97 340.735 1789.49 329.318 1783.68 322.513C1769.52 305.923 1766.62 302.284 1766.62 301.107C1766.62 299.893 1781.61 300.834 1796.62 302.992C1857.68 311.765 1924.07 341.854 1987.14 389.342C2042.43 430.972 2088.78 481.836 2120.66 535.86C2127.69 547.774 2144.74 582.174 2150.42 595.885C2166.7 635.252 2174.62 671.293 2174.62 706.025C2174.62 740.441 2167.89 766.742 2150.09 801.885C2140.05 821.717 2138.5 824.489 2127.73 841.885C2099.18 887.999 2063.03 931.569 2018.97 972.948C1965.15 1023.5 1894.28 1071.17 1825.81 1102.88C1812.56 1109.02 1781.2 1121.38 1772.62 1123.85C1771.25 1124.25 1762.34 1127.04 1752.82 1130.05C1736.99 1135.06 1735.34 1135.79 1733.57 1138.7C1728.84 1146.46 1733.25 1154.77 1742.01 1154.63C1749.23 1154.53 1783.95 1143.55 1807.62 1133.88C1852.79 1115.45 1894.57 1093.06 1939.12 1063.38C1963.22 1047.34 1963.95 1046.82 1980.62 1034C2017.48 1005.67 2051.35 974.367 2081.4 940.885C2114.32 904.206 2146.66 857.666 2167.49 816.997C2188.87 775.257 2196.61 745.626 2196.62 705.548C2196.63 658.51 2184.44 613.172 2156.1 554.885C2139.85 521.446 2113.25 481.871 2085.54 449.885C2071.48 433.659 2033.92 397.532 2019.62 386.484C1980.28 356.078 1955.18 339.435 1925.12 323.809C1881.85 301.315 1849.02 289.55 1812.42 283.431C1789.74 279.638 1776.43 278.385 1758.83 278.385H1744.39L1740.51 282.267ZM1121.38 881.883C1105.2 885.972 1098.64 894.326 1100.61 908.301C1102.55 921.992 1113.97 940.474 1123.21 944.857C1127.25 946.776 1134.86 946.829 1138.48 944.962C1148.42 939.82 1159.62 917.845 1159.62 903.485C1159.62 887.298 1141.18 876.88 1121.38 881.883ZM1435.4 881.881C1424.46 884.644 1416.99 889.633 1414.69 895.7C1409.8 908.61 1422.33 937.604 1435.77 944.457C1440.33 946.788 1447.61 946.958 1452.08 944.839C1463.74 939.304 1475.49 912.963 1472.6 898.825C1469.8 885.163 1452.89 877.459 1435.4 881.881ZM1295.96 958.477C1284.91 959.464 1266.17 964.03 1252.88 968.98C1235.73 975.365 1208.28 990.299 1180.62 1008.29C1165.73 1017.98 1151.52 1023.07 1142.1 1022.09C1133.85 1021.24 1122.43 1016.89 1099.62 1005.91C1074.55 993.832 1060.55 988.431 1044.62 984.68C1034.06 982.195 1031.41 981.972 1012.12 981.953C992.839 981.933 990.214 982.148 979.975 984.581C973.843 986.038 964.438 989.063 959.075 991.304C917.375 1008.73 887.799 1052.02 881.221 1105.26C876.128 1146.48 879.854 1182.51 893.333 1222.38C910.197 1272.27 940.764 1319 984.258 1361.4C1019.85 1396.1 1047.47 1419.02 1091.12 1450.1C1100.47 1456.75 1109.62 1463.33 1111.45 1464.7L1114.77 1467.21L1108.95 1471.49C1090.81 1484.8 1063.59 1511.52 1051.51 1527.88C1037.86 1546.36 1031.75 1560.52 1030.9 1575.64C1030.43 1584.04 1030.67 1586.33 1032.62 1592.14C1035.79 1601.6 1038.68 1606.16 1045.92 1613.11C1055.2 1622.02 1066.42 1627.3 1084.95 1631.48C1094.02 1633.53 1096.57 1633.56 1313.12 1634.22C1433.57 1634.58 1542.25 1634.85 1554.62 1634.81C1587.12 1634.71 1601.9 1632.13 1620.18 1623.36C1628.59 1619.33 1631.3 1617.41 1636.73 1611.66C1646.4 1601.41 1649.55 1593.51 1649.6 1579.45C1649.63 1569.2 1647.36 1560.79 1641.08 1547.88C1628.96 1523.01 1605.33 1497.42 1567.37 1468.05C1562.56 1464.32 1558.62 1460.96 1558.63 1460.58C1558.63 1460.2 1563.46 1456.22 1569.38 1451.74C1589.6 1436.41 1605.92 1421.49 1619.54 1405.88C1657.56 1362.32 1688.87 1305.16 1709.07 1242.45C1719.02 1211.57 1727.46 1169.96 1729.65 1140.99C1734.44 1077.68 1721.04 1028.58 1690.97 999.22C1681.17 989.65 1678.98 987.86 1669.44 981.647C1656.15 972.984 1637.46 966.272 1618.43 963.321C1605.52 961.321 1573.73 962.639 1559.24 965.775C1537.07 970.571 1513.67 978.963 1490.33 990.491C1483.63 993.797 1472.97 998.592 1466.64 1001.15C1455.5 1005.64 1454.78 1005.8 1444.62 1005.82C1431.22 1005.84 1428.38 1004.73 1405.55 990.54C1376.17 972.278 1366.7 967.744 1346.56 962.302C1329.37 957.661 1316.24 956.668 1295.96 958.477ZM1332.24 982.913C1351.09 986.154 1368.29 993.562 1389.12 1007.41C1412.49 1022.94 1424.78 1028.16 1440.19 1029.09C1456.7 1030.09 1468.02 1026.67 1503.15 1010.11C1524.95 999.827 1543.51 993.108 1562.12 988.762C1573.33 986.146 1575.58 985.959 1596.12 985.943C1617.11 985.926 1618.58 986.053 1628.12 988.694C1669.21 1000.07 1693.95 1028.39 1703.47 1074.93C1709.21 1103 1708.95 1129.06 1702.55 1168.09C1690.36 1242.35 1659.39 1316.23 1617.32 1371.37C1601.5 1392.11 1592.93 1401.34 1575.12 1416.79C1558.01 1431.64 1555.9 1433.28 1542.33 1442.31C1530.75 1450.01 1527.63 1453.64 1527.63 1459.46C1527.62 1464.31 1531.13 1468.67 1542.12 1477.47C1583.72 1510.75 1605.47 1532.5 1616.59 1551.94C1625.02 1566.68 1627.83 1579.21 1624.77 1588.44C1623.18 1593.26 1616.32 1599.74 1609.53 1602.83C1602.19 1606.18 1590.35 1609.16 1579.15 1610.47C1570.33 1611.51 1331.64 1611.86 1326.44 1610.84C1321.33 1609.85 1204.18 1609.6 1159.62 1610.5C1110.52 1611.48 1099.04 1611.06 1085.62 1607.74C1075.81 1605.31 1067.28 1601.08 1061.72 1595.88C1049.54 1584.48 1050.96 1571.33 1067 1547.03C1079.32 1528.38 1098.19 1509.4 1123.95 1489.73C1131.56 1483.92 1138.65 1477.75 1139.7 1476.03C1143.91 1469.13 1143.18 1461.91 1137.59 1455.14C1135.88 1453.09 1126.56 1446.16 1116.85 1439.75C1076.11 1412.83 1037.27 1380.95 1000.05 1343.88C962.463 1306.44 939.603 1273.81 922.301 1232.88C913.074 1211.06 906.443 1185.4 903.563 1160.38C902.094 1147.63 902.871 1117.63 904.987 1105.35C911.483 1067.66 926.893 1039.79 950.926 1022.26C965.785 1011.42 984.959 1005.55 1008.12 1004.74C1034.73 1003.82 1051.53 1008.39 1091.87 1027.51C1117.97 1039.87 1120.75 1040.96 1132.48 1043.42C1143.88 1045.81 1148.59 1045.87 1157.92 1043.75C1169.69 1041.07 1179.7 1035.93 1215.12 1014.35C1224.47 1008.65 1237.07 1001.54 1243.12 998.552C1256.79 991.789 1277.38 984.934 1289.74 983.027C1302.34 981.085 1321.32 981.034 1332.24 982.913ZM2300.12 1018.94C2297.92 1019.72 2296.06 1020.36 2295.98 1020.37C2295.9 1020.38 2293.66 1023.86 2291.02 1028.11C2284.22 1039.01 2266.99 1062.83 2256.1 1076.38C2245.41 1089.68 2219.99 1118.03 2213.51 1123.88C2211.07 1126.08 2205.48 1131.26 2201.07 1135.38C2193.19 1142.77 2187.84 1147.24 2168.1 1162.99C2152.2 1175.66 2133.47 1188.71 2117.62 1198.14C2081.01 1219.94 2042.94 1238.13 1993.62 1257.38C1959.18 1270.83 1842.12 1309.5 1768.12 1331.88C1737.32 1341.2 1734.18 1342.36 1731.37 1345.42C1725.74 1351.56 1729.09 1362.44 1737.07 1363.94C1739.18 1364.34 1742.92 1363.82 1747.26 1362.54C1755.59 1360.07 1792.35 1348.52 1817.62 1340.42C1827.8 1337.16 1850.52 1329.93 1868.12 1324.36C1967 1293.07 2023.42 1271.93 2076.29 1246.38C2125.04 1222.82 2167.2 1195.47 2205.62 1162.48C2241.26 1131.88 2277.22 1090.6 2306.33 1046.88C2317.1 1030.71 2317.84 1027.67 2312.37 1021.97C2308.41 1017.83 2305.37 1017.08 2300.12 1018.94ZM361.541 1021.17C359.169 1023.29 358.317 1025.01 357.965 1028.42C357.55 1032.43 358.038 1033.77 362.814 1041.65C384.762 1077.89 424.163 1124.76 459.624 1156.82C502.943 1195.99 553.951 1229.15 609.624 1254.35C615.949 1257.22 625.553 1261.57 630.967 1264.03C644.04 1269.97 681.021 1284.02 721.624 1298.46C729.417 1301.23 824.187 1331.47 844.624 1337.7C865.379 1344.04 898.829 1354.41 915.045 1359.55C933.179 1365.29 936.372 1365.4 940.874 1360.4C942.985 1358.06 943.624 1356.34 943.624 1353C943.624 1344.58 942.343 1343.89 905.124 1332.5C782.502 1294.94 711.564 1271.67 671.539 1255.87C591.361 1224.22 539.22 1194.21 486.037 1149.12C450.93 1119.35 412.856 1075.86 386.232 1035.13C380.153 1025.83 375.948 1020.4 374.207 1019.6C369.633 1017.52 364.981 1018.09 361.541 1021.17ZM290.624 1323.14C281.92 1324.29 277.5 1334.14 282.712 1340.77C285.566 1344.4 286.682 1344.89 315.124 1355.14C352.24 1368.52 380.479 1377.48 408.624 1384.8C416.049 1386.73 427.299 1389.68 433.624 1391.36C444.065 1394.13 483.071 1402.88 496.624 1405.49C499.649 1406.08 505.049 1407.19 508.624 1407.97C520.988 1410.67 561.214 1417.28 584.124 1420.37C596.774 1422.07 611.624 1424.11 617.124 1424.9C669.163 1432.31 750.705 1437.52 837.135 1438.97L878.146 1439.66L881.318 1436.99C887.859 1431.48 887.798 1422.51 881.192 1418.43C878.062 1416.49 876.339 1416.38 848.506 1416.38C795.818 1416.37 726.461 1412.81 664.124 1406.93C610.795 1401.9 576.876 1397.28 531.624 1388.88C527.499 1388.11 518.949 1386.52 512.624 1385.35C450.489 1373.82 361.592 1349.02 310.124 1328.88C295.787 1323.27 293.877 1322.7 290.624 1323.14ZM2340.62 1326.05C2267.88 1353.36 2181.07 1376.76 2101.76 1390.45C2095.36 1391.56 2086.3 1393.12 2081.62 1393.92C2049.67 1399.4 1979.92 1407.38 1937.62 1410.39C1890.19 1413.77 1828.57 1416.36 1795.34 1416.37C1765.54 1416.39 1762.54 1416.81 1759.25 1421.5C1758.35 1422.79 1757.62 1425.78 1757.62 1428.21C1757.62 1431.86 1758.19 1433.15 1761.05 1436.01L1764.48 1439.44L1791.3 1439.25C1855.75 1438.78 1933.32 1434.63 1995.62 1428.32C2082.96 1419.47 2191.63 1398.4 2264.62 1376.17C2273.7 1373.41 2284.27 1370.25 2288.12 1369.15C2297.04 1366.6 2352.07 1346.91 2356.35 1344.74C2361.13 1342.3 2362.8 1339.98 2363.37 1334.95C2363.84 1330.81 2363.59 1330.15 2360.35 1326.91C2358.41 1324.97 2355.92 1323.38 2354.81 1323.38C2353.7 1323.38 2352.19 1323.18 2351.46 1322.93C2350.72 1322.68 2345.85 1324.09 2340.62 1326.05ZM1688 1469.82C1681.26 1472.76 1679.35 1481.53 1684.19 1487.29C1686.83 1490.42 1687.36 1490.62 1709.25 1496.74C1714.26 1498.14 1727.03 1502.48 1737.61 1506.38C1794.07 1527.2 1847.55 1556.42 1889.62 1589.44C1907.27 1603.3 1936.03 1631.68 1947.82 1646.88C1978.64 1686.62 1991.23 1722.62 1985.67 1755.14C1984.39 1762.62 1984.42 1763.73 1985.93 1766.9C1987.81 1770.84 1992.87 1774.38 1996.62 1774.38C2000.18 1774.38 2005.25 1771 2007.11 1767.4C2009.47 1762.85 2010.94 1748.37 2010.32 1735.88C2008.28 1694.64 1984.83 1649.32 1943.66 1607C1890.03 1551.89 1811.46 1505.49 1724.12 1477.35C1708.32 1472.26 1694.33 1468.35 1692.21 1468.42C1691.61 1468.45 1689.72 1469.07 1688 1469.82ZM970.124 1471.49C947.979 1477.7 906.018 1493.1 884.124 1503.06C857.42 1515.21 829.301 1530.65 806.124 1545.9C795.572 1552.85 791.94 1555.44 774.124 1568.74C741.975 1592.74 710.257 1626.06 692.118 1654.88C684.199 1667.47 674.096 1688.21 670.69 1698.88C665.049 1716.56 663.365 1726.61 663.318 1742.88C663.257 1763.91 665.665 1771.12 673.546 1773.48C678.758 1775.04 684.107 1773.24 686.767 1769.03C688.491 1766.3 688.648 1765.02 687.948 1759.38C687.504 1755.81 687.175 1747.03 687.218 1739.88C687.282 1729.18 687.781 1724.96 690.05 1715.97C695.162 1695.73 704.817 1676.95 722.994 1651.88C761.54 1598.74 837.947 1545.23 922.124 1512.43C941.803 1504.76 960.551 1498.24 973.988 1494.38C987.126 1490.61 988.158 1490.01 990.181 1484.95C992.287 1479.69 991.363 1475.18 987.513 1471.94C983.815 1468.83 979.961 1468.73 970.124 1471.49ZM1662.84 1625.94C1658.73 1627.66 1656.62 1631.09 1656.62 1636.03C1656.62 1641.49 1660.08 1645.68 1666.4 1647.89C1697.62 1658.83 1716.1 1668.71 1736.6 1685.45C1771.81 1714.21 1791.62 1751.8 1791.62 1789.86C1791.62 1802.7 1789.2 1812.74 1783.13 1824.97C1777.33 1836.65 1777.1 1841.06 1782.02 1845.98C1784.87 1848.84 1786.14 1849.38 1789.89 1849.38C1796.13 1849.38 1799.12 1846.65 1803.75 1836.74C1811.73 1819.62 1815.19 1802.62 1814.35 1784.63C1812.62 1747.61 1798.26 1714.77 1771.05 1685.58C1749.77 1662.76 1717.5 1641.78 1685.62 1630.05C1673.19 1625.47 1666.72 1624.3 1662.84 1625.94ZM995.624 1627.78C952.864 1643.08 918.485 1666.02 895.209 1694.79C858.879 1739.7 849.02 1792.78 869.128 1835.21C873.921 1845.33 876.143 1848.16 880.167 1849.27C887.214 1851.21 894.165 1846.98 895.288 1840.07C895.767 1837.12 895.048 1834.79 891.304 1827.17C883.982 1812.29 882.16 1804.43 882.193 1787.88C882.216 1776.65 882.673 1772.11 884.512 1764.88C893.386 1730.01 918.413 1696.84 953.124 1673.95C963.056 1667.4 981.109 1658.37 995.124 1652.93C1010.39 1647.01 1011.32 1646.53 1014.22 1643.09C1016.98 1639.81 1017.3 1635.6 1015.13 1631.4C1011.78 1624.92 1006.42 1623.92 995.624 1627.78Z" fill="#FF0000"/>
<path fill-rule="evenodd" clip-rule="evenodd" d="M848.124 278.111C802.975 279.248 762.752 288.284 719.214 307.072C653.572 335.399 584.476 385.031 532.227 441.386C502.934 472.981 481.751 502.606 460.368 541.885C440.953 577.549 423.055 625.324 416.536 658.885C414.384 669.963 412.643 690.741 412.634 705.449C412.605 751.892 425.041 790.315 457.578 844.308C486.811 892.82 517.751 931.758 559.742 972.885C592.56 1005.03 617.785 1026.23 652.124 1050.56C714.607 1094.81 784.805 1130.63 844.967 1148.95C865.139 1155.09 870.095 1155.6 874.318 1151.97C876.694 1149.93 877.124 1148.79 877.124 1144.58C877.124 1136.38 877.117 1136.37 846.624 1126.59C795.88 1110.32 759.103 1092.97 704.624 1059.59C598.491 994.563 505.821 896.421 457.571 797.951C439.936 761.961 433.604 734.381 434.941 699.385C436.213 666.087 442.482 638.914 457.716 600.657C483.858 535.012 524.086 476.805 578.068 426.517C634.871 373.601 710.734 328.606 772.124 311.419C800.631 303.439 842.624 297.611 842.624 301.635C842.624 302.323 839.563 306.485 835.821 310.885C825.361 323.187 809.942 341.943 792.75 363.276C752.665 413.021 732.316 444.36 716.247 481.104C704.539 507.873 696.628 536.322 693.524 562.807C691.786 577.64 692.92 610.388 695.57 621.885C700.841 644.755 710.124 666.288 722.093 683.408C729.647 694.214 744.616 709.085 756.143 717.235C767.072 724.963 784.088 733.386 788.759 733.381C793.185 733.376 798.041 730.323 799.745 726.475C800.787 724.119 801.755 723.385 803.821 723.385C810.19 723.385 811.116 722.162 823.46 697.462C829.94 684.495 841.966 660.61 850.183 644.385C866.004 613.147 872.293 597.557 878.22 574.885C884.758 549.874 887.102 529.834 886.414 504.835C886.15 495.237 886.26 487.385 886.658 487.385C887.056 487.385 891.188 492.672 895.841 499.135C928.091 543.936 947.852 587.618 954.103 627.922C960.088 666.516 954.459 707.279 938.642 739.885C921.89 774.416 898.475 801.713 862.624 828.506C850.594 837.496 840.817 843.956 819.124 857.248C811.974 861.629 805.094 866.313 803.834 867.656C800.59 871.116 800.065 876.142 802.145 883.824C804.111 891.087 804.082 892.739 801.087 944.885C798.892 983.095 799.481 1007.07 802.943 1020.38C809.399 1045.22 825.821 1067.8 846.911 1080.83C853.874 1085.13 855.144 1085.58 858.91 1085.07C864.539 1084.32 867.624 1080.77 867.624 1075.05C867.624 1069.55 865.812 1067.14 857.763 1061.94C850.227 1057.07 840.245 1047.28 835.274 1039.88C831.006 1033.54 826.377 1022.87 823.986 1013.88C821.415 1004.22 821.434 963.48 824.027 923.677C825.607 899.445 825.725 893.226 824.721 887.177C823.736 881.246 823.754 879.737 824.817 879.091C860.738 857.255 877.13 845.635 898.624 826.77C944.161 786.804 969.803 740.116 977.076 683.927C983.223 636.436 971.473 584.809 942.47 531.886C924.583 499.245 896.142 460.342 887.198 456.279C879.744 452.894 872.316 454.397 867.354 460.294C862.908 465.578 862.138 469.906 863.464 482.147C865.096 497.211 864.912 524.085 863.082 538.044C860.863 554.973 858.142 566.788 852.424 584.315C845.803 604.615 838.001 621.452 815.784 663.385C808.353 677.41 799.83 693.963 796.844 700.169C790.725 712.883 791.687 712.43 781.624 707.345C773.069 703.023 761.802 694.663 754.112 686.933C720.418 653.064 707.901 605.012 718.183 549.011C723.685 519.048 735.503 488.027 752.9 457.885C771.307 425.994 805.531 380.401 849.568 329.105C860.324 316.576 870.131 304.201 871.361 301.605C875.322 293.248 873.9 285.925 867.375 281.069C863.618 278.273 860.532 277.799 848.124 278.111ZM1740.51 282.267C1737.67 285.105 1736.58 287.055 1736.47 289.517C1736.03 299.327 1737.58 302.464 1749.77 316.486C1754.37 321.766 1761.72 330.494 1766.12 335.881C1770.52 341.269 1775.92 347.772 1778.12 350.333C1806.39 383.234 1838.88 427.445 1855.58 455.717C1883.61 503.168 1897.74 554.957 1894.51 598.385C1890.82 647.85 1865.35 688.922 1826.69 707.709C1822.06 709.963 1818.12 711.374 1817.94 710.846C1817.1 708.336 1796.57 667.792 1787.57 650.885C1766.91 612.057 1754.68 581.978 1749.75 557.885C1745.45 536.844 1744.34 524.169 1745.09 504.385C1745.47 494.21 1746.11 482.96 1746.52 479.385C1748.29 463.838 1741.89 454.385 1729.62 454.385C1722.61 454.385 1718.4 457.452 1708.88 469.507C1667.27 522.193 1640.87 577.158 1633.05 627.385C1630.79 641.921 1630.77 673.016 1633.02 688.702C1637.2 717.86 1647.57 746.237 1662.98 770.655C1685.83 806.865 1719.91 838.712 1767.84 868.628L1785.78 879.832L1785.12 884.256C1784.03 891.499 1784.48 912.715 1786.26 938.586C1788.65 973.333 1788.65 1001.63 1786.27 1011.81C1784.16 1020.81 1779.35 1032.74 1775.15 1039.38C1771.44 1045.26 1761.35 1055.14 1753.85 1060.23C1745.52 1065.89 1742.62 1069.58 1742.62 1074.56C1742.62 1077.8 1743.28 1079.24 1746.02 1081.98C1748.3 1084.26 1750.36 1085.38 1752.28 1085.38C1758.24 1085.38 1771.55 1076.42 1782.19 1065.25C1797.64 1049.03 1805.76 1031.29 1809.18 1006.32C1811.04 992.69 1810.94 986.409 1808.15 938.885C1806.26 906.844 1806.05 887.939 1807.54 884.07C1808.14 882.522 1808.62 879.05 1808.62 876.355C1808.62 869.693 1805.59 866.431 1791.39 857.825C1737.72 825.309 1704.13 795.425 1682.91 761.318C1677.89 753.251 1668.84 735.237 1665.22 726.087C1661.76 717.377 1657.15 699.67 1655.01 686.885C1652.92 674.45 1652.65 646.47 1654.5 633.885C1660.43 593.458 1675.96 556.318 1706.14 510.385C1719.44 490.139 1722.7 485.899 1723.72 487.517C1724.19 488.27 1724.31 489.742 1723.98 490.79C1723.66 491.838 1723.4 501.063 1723.41 511.29C1723.44 533.941 1725.43 550.461 1730.59 570.885C1737.51 598.282 1746.74 620.842 1765.56 656.385C1771.53 667.66 1780.92 685.94 1786.43 697.008C1791.94 708.076 1797.02 718.043 1797.71 719.158C1799.06 721.306 1804.66 724.385 1807.22 724.385C1808.06 724.385 1809.94 725.796 1811.39 727.521C1814.64 731.382 1819.16 733.37 1823.12 732.686C1828.5 731.758 1845.92 722.808 1855.06 716.274C1890.2 691.169 1913.74 647.503 1916.18 602.885C1916.48 597.385 1916.87 590.86 1917.03 588.385C1917.48 581.576 1915.77 559.033 1914.04 548.885C1908.29 515.23 1894.58 478.624 1875.05 444.798C1863.79 425.295 1841.24 393.031 1823.74 371.385C1819.07 365.61 1810.52 355.035 1804.74 347.885C1798.97 340.735 1789.49 329.318 1783.68 322.513C1769.52 305.923 1766.62 302.284 1766.62 301.107C1766.62 299.893 1781.61 300.834 1796.62 302.992C1857.68 311.765 1924.07 341.854 1987.14 389.342C2042.43 430.972 2088.78 481.836 2120.66 535.86C2127.69 547.774 2144.74 582.174 2150.42 595.885C2166.7 635.252 2174.62 671.293 2174.62 706.025C2174.62 740.441 2167.89 766.742 2150.09 801.885C2140.05 821.717 2138.5 824.489 2127.73 841.885C2099.18 887.999 2063.03 931.569 2018.97 972.948C1965.15 1023.5 1894.28 1071.17 1825.81 1102.88C1812.56 1109.02 1781.2 1121.38 1772.62 1123.85C1771.25 1124.25 1762.34 1127.04 1752.82 1130.05C1736.99 1135.06 1735.34 1135.79 1733.57 1138.7C1728.84 1146.46 1733.25 1154.77 1742.01 1154.63C1749.23 1154.53 1783.95 1143.55 1807.62 1133.88C1852.79 1115.45 1894.57 1093.06 1939.12 1063.38C1963.22 1047.34 1963.95 1046.82 1980.62 1034C2017.48 1005.67 2051.35 974.367 2081.4 940.885C2114.32 904.206 2146.66 857.666 2167.49 816.997C2188.87 775.257 2196.61 745.626 2196.62 705.548C2196.63 658.51 2184.44 613.172 2156.1 554.885C2139.85 521.446 2113.25 481.871 2085.54 449.885C2071.48 433.659 2033.92 397.532 2019.62 386.484C1980.28 356.078 1955.18 339.435 1925.12 323.809C1881.85 301.315 1849.02 289.55 1812.42 283.431C1789.74 279.638 1776.43 278.385 1758.83 278.385H1744.39L1740.51 282.267ZM1121.38 881.883C1105.2 885.972 1098.64 894.326 1100.61 908.301C1102.55 921.992 1113.97 940.474 1123.21 944.857C1127.25 946.776 1134.86 946.829 1138.48 944.962C1148.42 939.82 1159.62 917.845 1159.62 903.485C1159.62 887.298 1141.18 876.88 1121.38 881.883ZM1435.4 881.881C1424.46 884.644 1416.99 889.633 1414.69 895.7C1409.8 908.61 1422.33 937.604 1435.77 944.457C1440.33 946.788 1447.61 946.958 1452.08 944.839C1463.74 939.304 1475.49 912.963 1472.6 898.825C1469.8 885.163 1452.89 877.459 1435.4 881.881ZM1295.96 958.477C1284.91 959.464 1266.17 964.03 1252.88 968.98C1235.73 975.365 1208.28 990.299 1180.62 1008.29C1165.73 1017.98 1151.52 1023.07 1142.1 1022.09C1133.85 1021.24 1122.43 1016.89 1099.62 1005.91C1074.55 993.832 1060.55 988.431 1044.62 984.68C1034.06 982.195 1031.41 981.972 1012.12 981.953C992.839 981.933 990.214 982.148 979.975 984.581C973.843 986.038 964.438 989.063 959.075 991.304C917.375 1008.73 887.799 1052.02 881.221 1105.26C876.128 1146.48 879.854 1182.51 893.333 1222.38C910.197 1272.27 940.764 1319 984.258 1361.4C1019.85 1396.1 1047.47 1419.02 1091.12 1450.1C1100.47 1456.75 1109.62 1463.33 1111.45 1464.7L1114.77 1467.21L1108.95 1471.49C1090.81 1484.8 1063.59 1511.52 1051.51 1527.88C1037.86 1546.36 1031.75 1560.52 1030.9 1575.64C1030.43 1584.04 1030.67 1586.33 1032.62 1592.14C1035.79 1601.6 1038.68 1606.16 1045.92 1613.11C1055.2 1622.02 1066.42 1627.3 1084.95 1631.48C1094.02 1633.53 1096.57 1633.56 1313.12 1634.22C1433.57 1634.58 1542.25 1634.85 1554.62 1634.81C1587.12 1634.71 1601.9 1632.13 1620.18 1623.36C1628.59 1619.33 1631.3 1617.41 1636.73 1611.66C1646.4 1601.41 1649.55 1593.51 1649.6 1579.45C1649.63 1569.2 1647.36 1560.79 1641.08 1547.88C1628.96 1523.01 1605.33 1497.42 1567.37 1468.05C1562.56 1464.32 1558.62 1460.96 1558.63 1460.58C1558.63 1460.2 1563.46 1456.22 1569.38 1451.74C1589.6 1436.41 1605.92 1421.49 1619.54 1405.88C1657.56 1362.32 1688.87 1305.16 1709.07 1242.45C1719.02 1211.57 1727.46 1169.96 1729.65 1140.99C1734.44 1077.68 1721.04 1028.58 1690.97 999.22C1681.17 989.65 1678.98 987.86 1669.44 981.647C1656.15 972.984 1637.46 966.272 1618.43 963.321C1605.52 961.321 1573.73 962.639 1559.24 965.775C1537.07 970.571 1513.67 978.963 1490.33 990.491C1483.63 993.797 1472.97 998.592 1466.64 1001.15C1455.5 1005.64 1454.78 1005.8 1444.62 1005.82C1431.22 1005.84 1428.38 1004.73 1405.55 990.54C1376.17 972.278 1366.7 967.744 1346.56 962.302C1329.37 957.661 1316.24 956.668 1295.96 958.477ZM1332.24 982.913C1351.09 986.154 1368.29 993.562 1389.12 1007.41C1412.49 1022.94 1424.78 1028.16 1440.19 1029.09C1456.7 1030.09 1468.02 1026.67 1503.15 1010.11C1524.95 999.827 1543.51 993.108 1562.12 988.762C1573.33 986.146 1575.58 985.959 1596.12 985.943C1617.11 985.926 1618.58 986.053 1628.12 988.694C1669.21 1000.07 1693.95 1028.39 1703.47 1074.93C1709.21 1103 1708.95 1129.06 1702.55 1168.09C1690.36 1242.35 1659.39 1316.23 1617.32 1371.37C1601.5 1392.11 1592.93 1401.34 1575.12 1416.79C1558.01 1431.64 1555.9 1433.28 1542.33 1442.31C1530.75 1450.01 1527.63 1453.64 1527.63 1459.46C1527.62 1464.31 1531.13 1468.67 1542.12 1477.47C1583.72 1510.75 1605.47 1532.5 1616.59 1551.94C1625.02 1566.68 1627.83 1579.21 1624.77 1588.44C1623.18 1593.26 1616.32 1599.74 1609.53 1602.83C1602.19 1606.18 1590.35 1609.16 1579.15 1610.47C1570.33 1611.51 1331.64 1611.86 1326.44 1610.84C1321.33 1609.85 1204.18 1609.6 1159.62 1610.5C1110.52 1611.48 1099.04 1611.06 1085.62 1607.74C1075.81 1605.31 1067.28 1601.08 1061.72 1595.88C1049.54 1584.48 1050.96 1571.33 1067 1547.03C1079.32 1528.38 1098.19 1509.4 1123.95 1489.73C1131.56 1483.92 1138.65 1477.75 1139.7 1476.03C1143.91 1469.13 1143.18 1461.91 1137.59 1455.14C1135.88 1453.09 1126.56 1446.16 1116.85 1439.75C1076.11 1412.83 1037.27 1380.95 1000.05 1343.88C962.463 1306.44 939.603 1273.81 922.301 1232.88C913.074 1211.06 906.443 1185.4 903.563 1160.38C902.094 1147.63 902.871 1117.63 904.987 1105.35C911.483 1067.66 926.893 1039.79 950.926 1022.26C965.785 1011.42 984.959 1005.55 1008.12 1004.74C1034.73 1003.82 1051.53 1008.39 1091.87 1027.51C1117.97 1039.87 1120.75 1040.96 1132.48 1043.42C1143.88 1045.81 1148.59 1045.87 1157.92 1043.75C1169.69 1041.07 1179.7 1035.93 1215.12 1014.35C1224.47 1008.65 1237.07 1001.54 1243.12 998.552C1256.79 991.789 1277.38 984.934 1289.74 983.027C1302.34 981.085 1321.32 981.034 1332.24 982.913ZM2300.12 1018.94C2297.92 1019.72 2296.06 1020.36 2295.98 1020.37C2295.9 1020.38 2293.66 1023.86 2291.02 1028.11C2284.22 1039.01 2266.99 1062.83 2256.1 1076.38C2245.41 1089.68 2219.99 1118.03 2213.51 1123.88C2211.07 1126.08 2205.48 1131.26 2201.07 1135.38C2193.19 1142.77 2187.84 1147.24 2168.1 1162.99C2152.2 1175.66 2133.47 1188.71 2117.62 1198.14C2081.01 1219.94 2042.94 1238.13 1993.62 1257.38C1959.18 1270.83 1842.12 1309.5 1768.12 1331.88C1737.32 1341.2 1734.18 1342.36 1731.37 1345.42C1725.74 1351.56 1729.09 1362.44 1737.07 1363.94C1739.18 1364.34 1742.92 1363.82 1747.26 1362.54C1755.59 1360.07 1792.35 1348.52 1817.62 1340.42C1827.8 1337.16 1850.52 1329.93 1868.12 1324.36C1967 1293.07 2023.42 1271.93 2076.29 1246.38C2125.04 1222.82 2167.2 1195.47 2205.62 1162.48C2241.26 1131.88 2277.22 1090.6 2306.33 1046.88C2317.1 1030.71 2317.84 1027.67 2312.37 1021.97C2308.41 1017.83 2305.37 1017.08 2300.12 1018.94ZM361.541 1021.17C359.169 1023.29 358.317 1025.01 357.965 1028.42C357.55 1032.43 358.038 1033.77 362.814 1041.65C384.762 1077.89 424.163 1124.76 459.624 1156.82C502.943 1195.99 553.951 1229.15 609.624 1254.35C615.949 1257.22 625.553 1261.57 630.967 1264.03C644.04 1269.97 681.021 1284.02 721.624 1298.46C729.417 1301.23 824.187 1331.47 844.624 1337.7C865.379 1344.04 898.829 1354.41 915.045 1359.55C933.179 1365.29 936.372 1365.4 940.874 1360.4C942.985 1358.06 943.624 1356.34 943.624 1353C943.624 1344.58 942.343 1343.89 905.124 1332.5C782.502 1294.94 711.564 1271.67 671.539 1255.87C591.361 1224.22 539.22 1194.21 486.037 1149.12C450.93 1119.35 412.856 1075.86 386.232 1035.13C380.153 1025.83 375.948 1020.4 374.207 1019.6C369.633 1017.52 364.981 1018.09 361.541 1021.17ZM290.624 1323.14C281.92 1324.29 277.5 1334.14 282.712 1340.77C285.566 1344.4 286.682 1344.89 315.124 1355.14C352.24 1368.52 380.479 1377.48 408.624 1384.8C416.049 1386.73 427.299 1389.68 433.624 1391.36C444.065 1394.13 483.071 1402.88 496.624 1405.49C499.649 1406.08 505.049 1407.19 508.624 1407.97C520.988 1410.67 561.214 1417.28 584.124 1420.37C596.774 1422.07 611.624 1424.11 617.124 1424.9C669.163 1432.31 750.705 1437.52 837.135 1438.97L878.146 1439.66L881.318 1436.99C887.859 1431.48 887.798 1422.51 881.192 1418.43C878.062 1416.49 876.339 1416.38 848.506 1416.38C795.818 1416.37 726.461 1412.81 664.124 1406.93C610.795 1401.9 576.876 1397.28 531.624 1388.88C527.499 1388.11 518.949 1386.52 512.624 1385.35C450.489 1373.82 361.592 1349.02 310.124 1328.88C295.787 1323.27 293.877 1322.7 290.624 1323.14ZM2340.62 1326.05C2267.88 1353.36 2181.07 1376.76 2101.76 1390.45C2095.36 1391.56 2086.3 1393.12 2081.62 1393.92C2049.67 1399.4 1979.92 1407.38 1937.62 1410.39C1890.19 1413.77 1828.57 1416.36 1795.34 1416.37C1765.54 1416.39 1762.54 1416.81 1759.25 1421.5C1758.35 1422.79 1757.62 1425.78 1757.62 1428.21C1757.62 1431.86 1758.19 1433.15 1761.05 1436.01L1764.48 1439.44L1791.3 1439.25C1855.75 1438.78 1933.32 1434.63 1995.62 1428.32C2082.96 1419.47 2191.63 1398.4 2264.62 1376.17C2273.7 1373.41 2284.27 1370.25 2288.12 1369.15C2297.04 1366.6 2352.07 1346.91 2356.35 1344.74C2361.13 1342.3 2362.8 1339.98 2363.37 1334.95C2363.84 1330.81 2363.59 1330.15 2360.35 1326.91C2358.41 1324.97 2355.92 1323.38 2354.81 1323.38C2353.7 1323.38 2352.19 1323.18 2351.46 1322.93C2350.72 1322.68 2345.85 1324.09 2340.62 1326.05ZM1688 1469.82C1681.26 1472.76 1679.35 1481.53 1684.19 1487.29C1686.83 1490.42 1687.36 1490.62 1709.25 1496.74C1714.26 1498.14 1727.03 1502.48 1737.61 1506.38C1794.07 1527.2 1847.55 1556.42 1889.62 1589.44C1907.27 1603.3 1936.03 1631.68 1947.82 1646.88C1978.64 1686.62 1991.23 1722.62 1985.67 1755.14C1984.39 1762.62 1984.42 1763.73 1985.93 1766.9C1987.81 1770.84 1992.87 1774.38 1996.62 1774.38C2000.18 1774.38 2005.25 1771 2007.11 1767.4C2009.47 1762.85 2010.94 1748.37 2010.32 1735.88C2008.28 1694.64 1984.83 1649.32 1943.66 1607C1890.03 1551.89 1811.46 1505.49 1724.12 1477.35C1708.32 1472.26 1694.33 1468.35 1692.21 1468.42C1691.61 1468.45 1689.72 1469.07 1688 1469.82ZM970.124 1471.49C947.979 1477.7 906.018 1493.1 884.124 1503.06C857.42 1515.21 829.301 1530.65 806.124 1545.9C795.572 1552.85 791.94 1555.44 774.124 1568.74C741.975 1592.74 710.257 1626.06 692.118 1654.88C684.199 1667.47 674.096 1688.21 670.69 1698.88C665.049 1716.56 663.365 1726.61 663.318 1742.88C663.257 1763.91 665.665 1771.12 673.546 1773.48C678.758 1775.04 684.107 1773.24 686.767 1769.03C688.491 1766.3 688.648 1765.02 687.948 1759.38C687.504 1755.81 687.175 1747.03 687.218 1739.88C687.282 1729.18 687.781 1724.96 690.05 1715.97C695.162 1695.73 704.817 1676.95 722.994 1651.88C761.54 1598.74 837.947 1545.23 922.124 1512.43C941.803 1504.76 960.551 1498.24 973.988 1494.38C987.126 1490.61 988.158 1490.01 990.181 1484.95C992.287 1479.69 991.363 1475.18 987.513 1471.94C983.815 1468.83 979.961 1468.73 970.124 1471.49ZM1662.84 1625.94C1658.73 1627.66 1656.62 1631.09 1656.62 1636.03C1656.62 1641.49 1660.08 1645.68 1666.4 1647.89C1697.62 1658.83 1716.1 1668.71 1736.6 1685.45C1771.81 1714.21 1791.62 1751.8 1791.62 1789.86C1791.62 1802.7 1789.2 1812.74 1783.13 1824.97C1777.33 1836.65 1777.1 1841.06 1782.02 1845.98C1784.87 1848.84 1786.14 1849.38 1789.89 1849.38C1796.13 1849.38 1799.12 1846.65 1803.75 1836.74C1811.73 1819.62 1815.19 1802.62 1814.35 1784.63C1812.62 1747.61 1798.26 1714.77 1771.05 1685.58C1749.77 1662.76 1717.5 1641.78 1685.62 1630.05C1673.19 1625.47 1666.72 1624.3 1662.84 1625.94ZM995.624 1627.78C952.864 1643.08 918.485 1666.02 895.209 1694.79C858.879 1739.7 849.02 1792.78 869.128 1835.21C873.921 1845.33 876.143 1848.16 880.167 1849.27C887.214 1851.21 894.165 1846.98 895.288 1840.07C895.767 1837.12 895.048 1834.79 891.304 1827.17C883.982 1812.29 882.16 1804.43 882.193 1787.88C882.216 1776.65 882.673 1772.11 884.512 1764.88C893.386 1730.01 918.413 1696.84 953.124 1673.95C963.056 1667.4 981.109 1658.37 995.124 1652.93C1010.39 1647.01 1011.32 1646.53 1014.22 1643.09C1016.98 1639.81 1017.3 1635.6 1015.13 1631.4C1011.78 1624.92 1006.42 1623.92 995.624 1627.78Z" stroke="black" stroke-width="556" mask="url(#path-1-outside-1_970_148)"/>
</svg>
