<svg width="251" height="136" viewBox="0 0 251 136" fill="none" xmlns="http://www.w3.org/2000/svg">
<path d="M36.864 109.408C28.5013 109.408 22.272 107.403 18.176 103.392C14.1653 99.296 12.16 93.1093 12.16 84.832V28.128L31.36 20.96V85.472C31.36 88.3733 32.1707 90.5493 33.792 92C35.4133 93.4506 37.9307 94.176 41.344 94.176C42.624 94.176 43.8187 94.048 44.928 93.792C46.0373 93.536 47.1467 93.2373 48.256 92.896V107.488C47.1467 108.085 45.568 108.555 43.52 108.896C41.5573 109.237 39.3387 109.408 36.864 109.408ZM0 57.312V42.72H48.256V57.312H0Z" fill="black"/>
<path d="M52.738 108V42.72H71.938V108H52.738Z" fill="black"/>
<path d="M110.293 135.52C101.248 135.52 93.8663 133.6 88.149 129.76C82.517 125.92 79.189 120.715 78.165 114.144H96.341C97.0237 115.765 98.4743 117.003 100.693 117.856C102.997 118.709 105.898 119.136 109.397 119.136C115.2 119.136 119.424 118.027 122.069 115.808C124.714 113.589 126.037 110.133 126.037 105.44V91.232L127.061 91.488C126.208 96.2666 123.733 100.064 119.637 102.88C115.541 105.611 110.464 106.976 104.405 106.976C98.6023 106.976 93.525 105.653 89.173 103.008C84.9063 100.277 81.5783 96.48 79.189 91.616C76.7997 86.752 75.605 81.0346 75.605 74.464C75.605 67.808 76.8423 62.0053 79.317 57.056C81.7917 52.1066 85.2477 48.2666 89.685 45.536C94.2077 42.8053 99.4557 41.44 105.429 41.44C111.573 41.44 116.565 42.8906 120.405 45.792C124.33 48.6933 126.634 52.6613 127.317 57.696L126.421 57.824V42.72H145.237V105.184C145.237 114.571 142.122 121.952 135.893 127.328C129.664 132.789 121.13 135.52 110.293 135.52ZM111.061 92.256C115.584 92.256 119.253 90.72 122.069 87.648C124.885 84.4906 126.293 80.0106 126.293 74.208C126.293 68.4053 124.842 63.968 121.941 60.896C119.125 57.7386 115.413 56.16 110.805 56.16C106.368 56.16 102.698 57.7386 99.797 60.896C96.981 64.0533 95.573 68.5333 95.573 74.336C95.573 80.1386 96.981 84.576 99.797 87.648C102.698 90.72 106.453 92.256 111.061 92.256Z" fill="black"/>
<path d="M185.164 109.28C177.996 109.28 171.681 107.872 166.22 105.056C160.844 102.155 156.62 98.144 153.548 93.024C150.561 87.8186 149.068 81.8453 149.068 75.104C149.068 68.3626 150.561 62.4746 153.548 57.44C156.62 52.4053 160.844 48.48 166.22 45.664C171.681 42.848 177.996 41.44 185.164 41.44C192.417 41.44 198.732 42.848 204.108 45.664C209.569 48.48 213.793 52.4053 216.78 57.44C219.767 62.4746 221.26 68.3626 221.26 75.104C221.26 81.8453 219.724 87.8186 216.652 93.024C213.665 98.144 209.441 102.155 203.98 105.056C198.604 107.872 192.332 109.28 185.164 109.28ZM185.164 94.176C188.151 94.176 190.839 93.408 193.228 91.872C195.703 90.336 197.665 88.16 199.116 85.344C200.567 82.4426 201.292 78.9866 201.292 74.976C201.292 69.088 199.713 64.5653 196.556 61.408C193.484 58.1653 189.687 56.544 185.164 56.544C180.641 56.544 176.801 58.1653 173.644 61.408C170.572 64.6506 169.036 69.1733 169.036 74.976C169.036 78.9866 169.761 82.4426 171.212 85.344C172.663 88.16 174.583 90.336 176.972 91.872C179.447 93.408 182.177 94.176 185.164 94.176Z" fill="black"/>
<path fill-rule="evenodd" clip-rule="evenodd" d="M206.594 23.0986C204.947 23.2146 203 23.0223 201.35 23.1947C201.178 25.4951 201.664 27.6869 202.19 29.459C202.381 30.1018 202.52 30.7514 202.74 31.3221C203.64 33.6612 204.808 35.7442 206.199 37.5543C209.025 41.2293 212.644 44.1169 217.355 45.7791C219.147 46.4104 221.037 46.9116 223.305 47.0962C224.059 47.1575 224.814 47.2826 225.569 47.2567C225.634 47.2544 225.699 47.2521 225.764 47.2497L225.764 31.3866C223.14 31.3866 221.113 30.3849 219.717 29.009C218.269 27.5839 217.424 25.6797 217.162 23.1624C215.855 23.0171 214.353 23.1308 212.958 23.098C212.612 23.0898 212.258 23.1063 211.934 23.0498L206.594 23.0986Z" fill="#FF1493"/>
<path fill-rule="evenodd" clip-rule="evenodd" d="M229.967 46.872C236.82 45.6914 241.572 42.1648 245.229 37.8445C245.714 36.7518 246.508 35.8234 247.105 34.7604C248.297 32.6362 249.204 30.2271 249.724 27.4678C249.982 26.102 250.282 24.5953 250.08 23.0343C249.266 22.9755 248.332 23.0021 247.428 23.0021C246.719 23.0021 246 23.0534 245.37 22.9775L238.858 23.0021C237.305 23.0439 235.668 22.9276 234.3 23.0988C234.044 25.6211 233.124 27.4482 231.681 28.8809C230.322 30.2309 228.399 31.3868 225.764 31.3868L225.764 47.2499C227.206 47.1966 228.608 47.106 229.967 46.872Z" fill="#0066FF"/>
<path d="M234.842 9.01025C234.842 6.80111 236.633 5.01025 238.842 5.01025H249.899V16.0103C249.899 18.2194 248.108 20.0103 245.899 20.0103H238.842C236.633 20.0103 234.842 18.2194 234.842 16.0103V9.01025Z" fill="#0066FF"/>
<path d="M201.717 9.01025C201.717 6.80111 203.508 5.01025 205.717 5.01025H212.774C214.983 5.01025 216.774 6.80112 216.774 9.01025V16.0103C216.774 18.2194 214.983 20.0103 212.774 20.0103H201.717V9.01025Z" fill="#FF1493"/>
<path d="M52 20C52 17.2386 54.2386 15 57 15H72V30C72 32.7614 69.7614 35 67 35H52V20Z" fill="black"/>
</svg>
